<svg width="30" height="31" viewBox="0 0 30 31" fill="none" xmlns="http://www.w3.org/2000/svg">
<g clip-path="url(#clip0_326_2449)">
<path fill-rule="evenodd" clip-rule="evenodd" d="M15 30.6401C23.2843 30.6401 30 23.9244 30 15.6401C30 7.35588 23.2843 0.640137 15 0.640137C6.71574 0.640137 0 7.35588 0 15.6401C0 23.9244 6.71574 30.6401 15 30.6401ZM7.5 12.4577C7.5 10.0769 9.43698 8.14014 11.8175 8.14014H18.1825C20.5633 8.14014 22.5 10.0771 22.5 12.4577V18.881C22.5 21.2615 20.5633 23.1985 18.1825 23.1985H11.8175C9.43674 23.1985 7.5 21.2615 7.5 18.881V12.4577ZM11.0965 15.6418C11.0965 13.5055 12.8531 11.7678 15.0119 11.7678C17.1707 11.7678 18.9273 13.5055 18.9273 15.6418C18.9273 17.7777 17.1707 19.5154 15.0119 19.5154C12.8529 19.5154 11.0965 17.7777 11.0965 15.6418ZM12.5227 15.6418C12.5227 16.9911 13.6392 18.0893 15.0119 18.0893C16.3846 18.0893 17.5012 16.9914 17.5012 15.6418C17.5012 14.2921 16.3843 13.1942 15.0119 13.1942C13.6392 13.1942 12.5227 14.2921 12.5227 15.6418ZM18.9974 12.5308C19.5062 12.5308 19.9187 12.1183 19.9187 11.6095C19.9187 11.1007 19.5062 10.6883 18.9974 10.6883C18.4886 10.6883 18.0762 11.1007 18.0762 11.6095C18.0762 12.1183 18.4886 12.5308 18.9974 12.5308Z" fill="black"/>
</g>
<defs>
<clipPath id="clip0_326_2449">
<rect width="30" height="30" fill="white" transform="translate(0 0.640137)"/>
</clipPath>
</defs>
</svg>
