<svg width="30" height="31" viewBox="0 0 30 31" fill="none" xmlns="http://www.w3.org/2000/svg">
<g clip-path="url(#clip0_260_538)">
<path fill-rule="evenodd" clip-rule="evenodd" d="M15 30.6401C23.2843 30.6401 30 23.9244 30 15.6401C30 7.35588 23.2843 0.640137 15 0.640137C6.71574 0.640137 0 7.35588 0 15.6401C0 23.9244 6.71574 30.6401 15 30.6401ZM15.5483 15.4024L22.2573 10.7472C22.0304 10.4396 21.6655 10.2401 21.254 10.2401H8.74602C8.35008 10.2401 7.99728 10.4248 7.76904 10.7127L14.2764 15.3917C14.6554 15.6642 15.1648 15.6685 15.5483 15.4024ZM22.5 19.7414V11.9287L16.04 16.4111C15.3565 16.8854 14.4483 16.8778 13.7729 16.3921L7.5 11.8817V19.7414C7.5 20.4296 8.05785 20.9874 8.74602 20.9874H21.254C21.9422 20.9874 22.5 20.4296 22.5 19.7414Z" fill="black"/>
</g>
<defs>
<clipPath id="clip0_260_538">
<rect width="30" height="30" fill="white" transform="translate(0 0.640137)"/>
</clipPath>
</defs>
</svg>
