<svg width="30" height="31" viewBox="0 0 30 31" fill="none" xmlns="http://www.w3.org/2000/svg">
<g clip-path="url(#clip0_260_536)">
<path fill-rule="evenodd" clip-rule="evenodd" d="M15 30.6401C23.2843 30.6401 30 23.9244 30 15.6401C30 7.35588 23.2843 0.640137 15 0.640137C6.71574 0.640137 0 7.35588 0 15.6401C0 23.9244 6.71574 30.6401 15 30.6401ZM15.0027 9.34014H15.4854C16.9475 9.34197 18.349 9.92397 19.3822 10.9583C20.4154 11.9926 20.9957 13.3947 20.9957 14.8565V15.3392C20.9801 15.5111 20.9007 15.6709 20.773 15.7871C20.6453 15.9033 20.4787 15.9674 20.306 15.9667H20.2509C20.069 15.9509 19.9008 15.8636 19.7831 15.724C19.6655 15.5844 19.608 15.4039 19.6233 15.222V14.8565C19.6233 13.7592 19.1873 12.7069 18.4113 11.931C17.6353 11.1551 16.5828 10.7192 15.4854 10.7192H15.1199C14.937 10.7348 14.7554 10.677 14.6151 10.5587C14.4748 10.4404 14.3872 10.2712 14.3716 10.0883C14.3561 9.90543 14.4138 9.72384 14.5322 9.58356C14.6505 9.44325 14.8198 9.35568 15.0027 9.34014ZM17.0667 15.3441C16.9374 15.2148 16.8647 15.0394 16.8647 14.8565C16.8647 14.4907 16.7194 14.14 16.4607 13.8813C16.202 13.6227 15.8512 13.4774 15.4854 13.4774C15.3025 13.4774 15.1271 13.4048 14.9978 13.2754C14.8684 13.1461 14.7958 12.9707 14.7958 12.7879C14.7958 12.605 14.8684 12.4296 14.9978 12.3003C15.1271 12.171 15.3025 12.0983 15.4854 12.0983C16.217 12.0983 16.9187 12.3889 17.436 12.9062C17.9534 13.4234 18.244 14.125 18.244 14.8565C18.244 15.0394 18.1713 15.2148 18.042 15.3441C17.9127 15.4734 17.7373 15.5461 17.5543 15.5461C17.3714 15.5461 17.196 15.4734 17.0667 15.3441ZM19.9203 21.36L19.9203 21.3655C19.92 21.5119 19.889 21.6565 19.8294 21.7902C19.7699 21.9237 19.6833 22.0432 19.575 22.1411C19.4602 22.2456 19.3237 22.3233 19.1753 22.3685C19.0355 22.4112 18.8884 22.4241 18.7435 22.4065C17.4743 22.3991 16.0231 21.8005 14.7541 21.093C13.4661 20.3749 12.3133 19.5146 11.6406 18.9372L11.6304 18.9285L11.621 18.9191C9.69909 16.9961 8.46525 14.4922 8.11086 11.7959C8.08869 11.6431 8.10054 11.4872 8.14557 11.3395C8.19081 11.191 8.26845 11.0544 8.37282 10.9396C8.47191 10.8299 8.59308 10.7424 8.72832 10.6828C8.86341 10.6234 9.00948 10.5931 9.15702 10.594H11.249C11.4897 10.5892 11.7248 10.6675 11.9147 10.8157C12.1058 10.9648 12.2394 11.1757 12.2926 11.4123L12.3011 11.4502V11.4891C12.3011 11.5872 12.3236 11.6786 12.3554 11.8082C12.3683 11.8605 12.3827 11.9191 12.3977 11.9868L12.3978 11.9873C12.4749 12.337 12.5775 12.6807 12.7047 13.0154L12.8197 13.3178L11.547 13.9181L11.5454 13.9189C11.4612 13.9576 11.3958 14.028 11.3635 14.1148L11.3615 14.1203L11.3593 14.1257C11.3243 14.2109 11.3243 14.3065 11.3593 14.3917L11.3743 14.4284L11.3808 14.4675C11.4241 14.7296 11.5681 15.0696 11.8219 15.4652C12.0729 15.8566 12.4189 16.2832 12.8424 16.7163C13.6862 17.5792 14.8194 18.4489 16.0739 19.1017C16.156 19.132 16.2466 19.1304 16.3277 19.0971L16.3331 19.0948L16.3386 19.0928C16.425 19.0606 16.4953 18.9956 16.534 18.9118L16.5344 18.9108L17.107 17.6379L17.4119 17.7491C17.758 17.8754 18.1121 17.9785 18.4719 18.0579L18.4736 18.0583L18.4752 18.0587C18.6456 18.098 18.8318 18.1314 19.0141 18.1584L19.0269 18.1603L19.0396 18.1632C19.2761 18.2164 19.4868 18.3501 19.6359 18.5413C19.7829 18.7299 19.861 18.9629 19.8575 19.2018L19.9203 21.36Z" fill="black"/>
</g>
<defs>
<clipPath id="clip0_260_536">
<rect width="30" height="30" fill="white" transform="translate(0 0.640137)"/>
</clipPath>
</defs>
</svg>
