<svg width="30" height="31" viewBox="0 0 30 31" fill="none" xmlns="http://www.w3.org/2000/svg">
<g clip-path="url(#clip0_326_2451)">
<path fill-rule="evenodd" clip-rule="evenodd" d="M15 30.6401C23.2843 30.6401 30 23.9244 30 15.6401C30 7.35588 23.2843 0.640137 15 0.640137C6.71574 0.640137 0 7.35588 0 15.6401C0 23.9244 6.71574 30.6401 15 30.6401ZM20.9288 9.33798C19.3852 7.79244 17.3322 6.94095 15.145 6.94014C10.6385 6.94014 6.97038 10.6077 6.96876 15.1158C6.96822 16.5568 7.34469 17.9635 8.06004 19.2032L6.9 23.4401L11.2343 22.3033C12.4285 22.9548 13.7732 23.298 15.1414 23.2985H15.1447C19.6509 23.2985 23.319 19.6304 23.3209 15.1226C23.3222 12.9376 22.4727 10.8835 20.9288 9.33798ZM18.8726 16.8278C18.6682 16.7255 17.664 16.2314 17.4765 16.1632C17.2894 16.095 17.153 16.0609 17.0168 16.2655C16.8807 16.4701 16.4892 16.9301 16.37 17.0665C16.2508 17.2029 16.1315 17.2198 15.9275 17.1175C15.8941 17.1008 15.8485 17.081 15.7923 17.0566C15.5046 16.9318 14.9372 16.6858 14.2845 16.1034C13.6772 15.5616 13.2672 14.8927 13.148 14.6883C13.0287 14.4837 13.1351 14.3732 13.2374 14.2714C13.2988 14.2103 13.3692 14.1245 13.4396 14.0387C13.4747 13.996 13.5098 13.9532 13.5438 13.9135C13.6304 13.8124 13.668 13.7356 13.7191 13.6316C13.7282 13.6129 13.7378 13.5934 13.7482 13.5727C13.8164 13.4363 13.7823 13.3171 13.7312 13.2148C13.6972 13.1464 13.5035 12.6751 13.328 12.2478C13.2407 12.0353 13.1578 11.8337 13.1013 11.6979C12.9548 11.3462 12.8065 11.3471 12.6874 11.3479C12.6716 11.348 12.6563 11.3481 12.6416 11.3473C12.5226 11.3413 12.3862 11.3402 12.2501 11.3402C12.1139 11.3402 11.8927 11.3912 11.7053 11.5959C11.6932 11.6091 11.6797 11.6235 11.665 11.6391C11.4521 11.8664 10.9902 12.3596 10.9902 13.3002C10.9902 14.3033 11.7186 15.2726 11.8237 15.4125L11.8245 15.4135C11.8311 15.4223 11.843 15.4394 11.86 15.4638C12.1039 15.8136 13.3985 17.6709 15.3144 18.4983C15.802 18.7089 16.1823 18.8344 16.4791 18.9285C16.9685 19.084 17.4138 19.0622 17.766 19.0095C18.1586 18.9509 18.9746 18.5155 19.1448 18.0383C19.3151 17.5611 19.3151 17.1519 19.2641 17.0668C19.2229 16.9979 19.1264 16.9512 18.9833 16.882C18.949 16.8654 18.912 16.8475 18.8726 16.8278Z" fill="black"/>
</g>
<defs>
<clipPath id="clip0_326_2451">
<rect width="30" height="30" fill="white" transform="translate(0 0.640137)"/>
</clipPath>
</defs>
</svg>
